<svg xmlns="http://www.w3.org/2000/svg" width="256" height="256"><path fill-opacity=".016" d="M0 128.004v128.004l128.25-.254 128.25-.254.254-127.75L257.008 0H0v128.004m.485.496c0 70.4.119 99.053.265 63.672.146-35.38.146-92.98 0-128C.604 29.153.485 58.1.485 128.5" fill="#1976D2" fill-rule="evenodd"/><path fill-opacity=".203" d="M104.922 1.552C88.32 4.558 70.792 11.717 55.694 21.657c-9.255 6.094-27.943 24.782-34.037 34.037C6.7 78.412 0 100.781 0 128c0 21.712 3.926 38.954 12.965 56.931 2.219 4.413 4.035 8.846 4.035 9.851 0 3.055-5.4 10.566-11.347 15.782-4.642 4.071-5.63 5.501-5.64 8.163-.016 3.891 1.995 5.396 10.487 7.851 7.316 2.114 22.029 2.193 28.566.153l4.565-1.424 7.935 5.816c15.743 11.541 35.764 20.18 54.225 23.4 11.037 1.925 33.246 1.891 44.709-.067 41.01-7.006 79.043-36.903 95.182-74.819 3.853-9.053 8.3-24.323 8.995-30.887.334-3.162.994-5.75 1.465-5.75.472 0 .851-7.312.843-16.25-.011-10.861-.337-15.753-.985-14.75-.738 1.142-.973.74-.985-1.682-.008-1.751-1.381-8.501-3.051-15C239.621 47.283 199.252 10.03 150.29 1.491c-10.639-1.855-34.968-1.822-45.368.061m4.384 21.933c-41.112 7.458-73.615 37.902-84.431 79.082-2.012 7.661-2.344 11.283-2.326 25.433.022 18.054 1.321 25.069 7.544 40.735 5.442 13.698 4.95 24.829-1.574 35.664-1.817 3.016-3.051 5.735-2.744 6.043.307.307 4.773.558 9.923.558 6.74 0 11.04-.564 15.34-2.013l5.976-2.013 7.243 5.526c41.676 31.794 100.667 27.988 138.115-8.911 32.62-32.142 41.024-82.04 20.647-122.589-5.592-11.127-11.87-19.563-21.367-28.712-12.823-12.354-23.149-18.805-39.49-24.673-14.987-5.382-36.629-7.073-52.856-4.13M57.807 79.838c-.719 1.011-2.52 2.139-4.003 2.506-2.919.722-12.197 10.609-14.933 15.912-6.092 11.81-7.12 14.628-7.604 20.844-.444 5.692-.141 7.431 2.201 12.649 2.513 5.601 2.633 6.449 1.603 11.407-1.978 9.53 2.796 24.204 8.881 27.296 2.809 1.428 14.232 2.655 13.486 1.448-.257-.416.552-1.079 1.797-1.473 2.96-.937 14.765-8.395 14.765-9.328 0-.397.787-1.594 1.75-2.66 3.136-3.474 5.481-9.811 6.012-16.246.472-5.709.84-6.55 3.879-8.869 1.848-1.409 3.359-3.128 3.359-3.82 0-1.66 2.672-3.843 3.354-2.74.293.474-.792 5.086-2.411 10.249-3.385 10.799-3.225 9.987-1.969 9.987.536 0 1.709-1.42 2.607-3.156 2.104-4.069 5.207-7.39 6.084-6.512.378.377 1.733-.296 3.011-1.497s2.324-1.966 2.324-1.699c0 .266-1.575 3.681-3.5 7.589-1.925 3.907-3.5 8.311-3.5 9.785 0 5.9 6.13 11.536 10.9 10.022 1.127-.358 3.056-2.086 4.287-3.841 1.232-1.755 2.749-3.641 3.371-4.191.623-.55 2.185-2.537 3.473-4.416l2.342-3.416.926 2.416c3.172 8.27 4.322 10.137 7.427 12.056 2.479 1.532 4.434 1.968 7.176 1.6 4.124-.553 10.663-4.365 11.562-6.74 1.153-3.046 3.433-6.363 4.963-7.219.865-.484 1.573-1.723 1.573-2.754 0-2.513 4.939-8.264 6.562-7.642.711.273 1.839-.163 2.507-.969 3.013-3.629 1.538.97-3.149 9.82-1.953 3.688-1.058 9.404 1.981 12.658 4.987 5.339 7.375 4.278 16.584-7.368 4.894-6.188 6.634-9.526 4.967-9.526-.302 0-3.655 3.15-7.452 7s-7.344 7-7.882 7c-2.176 0 3-11.911 8.938-20.568 1.535-2.238 4.393-5.163 6.351-6.5 3.775-2.578 3.806-2.879 1.024-9.682-.731-1.787-1.98-3.25-2.776-3.25-.796 0-4.757 1.393-8.801 3.095-4.045 1.703-8.366 3.33-9.604 3.617-2.376.55-2.961-.601-1.199-2.363.736-.736.547-2.314-.628-5.249-2.118-5.295-4.399-5.089-6.362.573-1.213 3.501-1.232 4.78-.117 8.158 1.149 3.482 1.087 4.873-.474 10.642-1.527 5.642-2.259 6.853-4.883 8.083-1.698.795-5.337 2.857-8.087 4.582-5.917 3.711-12.866 4.956-13.818 2.475-.4-1.043-.088-1.613.883-1.613 1.822 0 11.11-4.612 11.591-5.756.189-.449 1.728-1.787 3.419-2.973 1.691-1.187 4.341-3.985 5.889-6.22 2.599-3.75 2.747-4.457 1.926-9.207-.653-3.777-1.592-5.667-3.53-7.107l-2.64-1.963-5.36 3.973c-7.474 5.54-14.114 12.939-16.382 18.253-1.86 4.356-16.015 19-18.366 19-3.319 0 7.922-20.1 14.46-25.855 4.846-4.265 4.889-4.484 2.24-11.395-1.371-3.575-2.909-3.486-12.952.75-4.565 1.925-8.875 3.5-9.58 3.5-1.588 0-1.649-1.231-.136-2.744 1.227-1.227-.251-6.273-2.71-9.256-.68-.825-1.832-3.511-2.559-5.968C91.339 99.842 84.893 93 81.539 93c-1.716 0-2.53-.941-3.589-4.152-.754-2.283-2.791-5.658-4.528-7.5C70.574 78.329 69.717 78 64.689 78c-4.272 0-5.881.43-6.882 1.838m2.394 9.22c-12.011 6.001-21.849 21.251-22.93 35.54-.311 4.112-.162 7.385.335 7.363.492-.021 2.139-2.631 3.661-5.8 5.834-12.145 17.942-25.17 29.481-31.714 4.496-2.549 4.936-3.763 2.315-6.384-2.817-2.817-5.677-2.596-12.862.995m-18.637 8.649c-.542 1.425-.428 1.54.56.56.684-.679.991-1.486.683-1.793-.308-.308-.867.247-1.243 1.233m35.957 5.269c-.983 1.087-2.165 1.744-2.625 1.46-.461-.285-1.126.634-1.48 2.041-.407 1.624-1.24 2.461-2.279 2.291-.95-.156-1.515.308-1.346 1.105.178.838-.27 1.157-1.152.819-.858-.33-1.632.172-1.911 1.239-.437 1.672-5.81 5.069-8.017 5.069-1.608 0-5.156 4.352-8.658 10.618-1.807 3.235-3.97 6.66-4.806 7.611-1.371 1.56-1.335 1.805.367 2.5 1.037.424 5.536.771 9.998.771 6.91 0 9.02-.434 14.25-2.934 3.376-1.613 6.138-3.364 6.138-3.889 0-.526-1.35-3.15-3-5.831-3.559-5.785-3.569-5.846-.978-5.846 1.307 0 3.032 1.592 4.878 4.504l2.857 4.504 2.667-3.498c4.004-5.249 6.529-11.506 6.554-16.24.02-3.929-.26-4.373-3.938-6.25-4.89-2.494-5.298-2.497-7.519-.044M.407 128c0 9.075.152 12.787.337 8.25.185-4.537.185-11.963 0-16.5-.185-4.537-.337-.825-.337 8.25m215.504-13.718c-.875.67-2.599 4.139-3.833 7.71-2.285 6.615-3.971 8.799-5.225 6.77-.516-.835-1.085-.814-2.161.079-1.227 1.018-1.437.75-1.315-1.674.079-1.587.632-3.511 1.229-4.276 1.141-1.464 2.554-4.891 2.016-4.891-.173 0-1.717.7-3.432 1.555-6.681 3.333-15.305 16.353-18.329 27.672-1.781 6.662-.501 9.633 5.564 12.918 4.844 2.623 4.901 2.629 6.965.706 1.155-1.075 2.236-1.474 2.429-.895.191.574.808 1.044 1.371 1.044s.765-.675.448-1.5c-.497-1.297-.071-1.28 3.143.124 6.832 2.984 8.074 2.906 11.875-.744 4.37-4.197 7.545-10.213 7.54-14.286-.002-1.702-.773-5.014-1.715-7.36-1.34-3.342-1.478-4.857-.636-7 2.967-7.553 1.901-14.966-2.39-16.613-1.956-.751-1.622-.813-3.544.661m-76.048 14.475C137.061 130.609 129 139.904 129 141.283c0 2.207 10.231-7.764 13.373-13.033.98-1.643.637-1.574-2.51.507m60.859 7.493c-1.877 2.338-3.783 5.15-4.237 6.25-1.545 3.753-3.309 10.999-2.799 11.5.779.765 6.03-5.858 9.479-11.958 1.92-3.395 2.661-5.6 1.961-5.833-1.517-.506-1.432-2.919.124-3.547.887-.358.907-.527.067-.583-.651-.043-2.719 1.833-4.595 4.171M216 140.154c0 2.195-5.114 11.952-6.554 12.505-2.289.878-1.681 2.513.804 2.161 3.803-.541 10.323-15.82 6.75-15.82-.55 0-1 .519-1 1.154m-141.98 2.322c-.696.838-1.779 1.524-2.407 1.524-.629 0-2.822.9-4.874 2-4.669 2.502-14.028 2.668-19.818.352-4.849-1.941-5.476-1.407-6.529 5.556-1.337 8.846 1.92 12.052 12.268 12.077 5.708.014 6.54-.285 11.324-4.067 5.156-4.075 10.579-11.374 11.676-15.715.736-2.913-.006-3.696-1.64-1.727" fill="#1976D2" fill-rule="evenodd"/><path fill-opacity=".195" d="M111.923.409c-.233.232-2.448.716-4.923 1.075-7.581 1.101-12.259 2.311-21.565 5.578C41.669 22.424 9.351 60.817 1.31 107c-1.058 6.074-1.022 36.271.051 42.5 1.57 9.125 5.675 21.875 10.303 32 2.513 5.5 4.785 11.178 5.047 12.618.704 3.86-1.991 8.199-9.77 15.736-7.034 6.814-8.674 10.529-5.691 12.891 1.525 1.208 9.97 3.964 14.75 4.814 4.129.734 15.642.74 18.5.01 10.414-2.662 10.922-2.609 14.5 1.506 1.595 1.835 14.22 9.606 21.733 13.377 9.162 4.6 23.927 9.936 30.767 11.12 2.2.38 4.9.925 6 1.211 1.1.286 8.981.714 17.512.952 14.991.418 17.083.218 34.688-3.315 3.625-.727 19.507-6.498 23.8-8.647 20.473-10.252 39.675-27.17 51.901-45.728 6.436-9.769 12.427-22.256 14.655-30.545 3.357-12.492 4.922-19.394 4.932-21.75.007-1.512.462-2.75 1.012-2.75.619 0 1-5.314 1-13.941 0-8.215-.411-14.195-1-14.559-.55-.34-1.001-2.054-1.003-3.809-.002-3.242-3.456-17.101-6.527-26.191-5.134-15.198-16.641-33.497-28.97-46.069C200.398 18.952 177.988 7.025 150 1.44 146.081.658 112.583-.249 111.923.409M113 22.613c-15.465 2.895-24.504 5.867-34.919 11.483-21.045 11.349-36.464 27.652-46.606 49.281-6.915 14.746-8.836 24.15-8.911 43.623-.073 18.777 1.27 26.498 7.22 41.5 5.821 14.679 4.967 27.523-2.483 37.335-1.735 2.285-2.208 3.658-1.503 4.363 1.504 1.504 21.832.452 26.884-1.391l4.181-1.526 7.682 5.752c20.132 15.077 41.99 21.724 67.955 20.667 15.989-.651 28.957-3.778 42.014-10.13 27.849-13.547 48.078-38.064 56.174-68.079 2.42-8.971 2.698-11.727 2.726-26.991.027-14.313-.319-18.392-2.186-25.807-3.208-12.738-7.458-22.218-15.253-34.022-14.328-21.694-38.497-38.51-63.521-44.196-6.766-1.538-34.256-2.835-39.454-1.862M60.75 78.689c-.962.252-1.75.905-1.75 1.452 0 .557.93.699 2.118.321 1.464-.464 1.99-.286 1.702.577-.228.686-1.703 1.386-3.277 1.553-1.574.168-3.24.891-3.702 1.607-.675 1.044-1.032 1.005-1.808-.199-.825-1.28-1.303-1.153-3.25.864L48.5 87.227l2.25-1.148c4.213-2.152 1.792 1.868-2.67 4.433-1.086.624-1.264.367-.757-1.098.364-1.053-1.115.093-3.288 2.545-2.172 2.453-3.724 4.685-3.448 4.961.276.276 1.573-.831 2.883-2.459 1.912-2.379 2.631-2.715 3.655-1.711 1.033 1.013 1.019 1.487-.072 2.5-1.077 1-1.205 1-.641 0 .439-.777.09-1.25-.92-1.25-1.225 0-1.456.555-.935 2.25.38 1.237.373 1.95-.016 1.583-1.175-1.107-4.791 3.25-4.791 5.773 0 1.296-.619 2.87-1.375 3.498-.756.627-1.389 1.873-1.407 2.768-.026 1.352-.297 1.289-1.597-.372-1.484-1.896-1.531-1.817-.908 1.5.454 2.412.355 3.058-.318 2.078-.746-1.088-1.212-.5-1.985 2.5-1.402 5.448-.798 9.936 2.27 16.865 2.183 4.932 2.456 6.447 1.6 8.9-1.999 5.734-1.243 13.2 2.038 20.145 1.688 3.572 4.038 7.173 5.223 8.003 2.444 1.712 13.227 2.098 14.209.509.34-.55 1.394-1 2.343-1 2.984 0 12.053-6.557 15.335-11.086C78.852 152.841 81 146.406 81 140.468c0-3.579.527-4.663 3.5-7.203 1.925-1.644 3.5-3.432 3.5-3.972 0-1.073 3.247-4.293 4.329-4.293 1.268 0 .603 5.507-1.329 11-2.461 6.995-2.52 9.355-.139 5.5C93.297 137.555 97 134.238 97 136c0 .903.636.734 2.048-.543 2.817-2.55 4.833-2.718 4.214-.351-.272 1.042-.79 1.894-1.151 1.894s-1.483 1.688-2.494 3.75a488.383 488.383 0 01-2.728 5.486c-1.35 2.637-1.065 7.522.629 10.799 1.594 3.083 5.084 4.584 8.16 3.509 1.732-.606 11.383-12.052 13.596-16.126.991-1.824.949-1.834-.866-.216-1.049.936-4.536 4.199-7.749 7.25s-6.25 5.548-6.75 5.548c-3.744 0 5.39-18.304 12.935-25.922l5.37-5.422-1.218-4.078c-.669-2.243-1.665-4.359-2.213-4.703-.935-.586-5.692.928-13.783 4.389-7.848 3.356-8.117 3.322-7.441-.939.49-3.091.11-4.553-1.976-7.619-1.421-2.087-2.583-4.468-2.583-5.29C93 102.635 84.482 93 80.255 93c-.704 0-2.339-2.395-3.634-5.322-3.634-8.217-8.43-10.933-15.871-8.989M59 89.013c-7.509 4.064-13.306 10.672-18.156 20.692-3.507 7.245-4.097 9.418-4.211 15.509-.075 3.972.306 7.217.867 7.389.55.167 2.35-2.448 4-5.813 1.65-3.364 4.35-7.816 6-9.893a235.911 235.911 0 005.5-7.248c1.375-1.91 4.223-4.524 6.329-5.81 2.105-1.287 4.259-3.127 4.786-4.09.526-.964 3.191-2.884 5.921-4.267C73.951 93.498 75 92.449 75 90.518c0-5.252-7.732-5.98-16-1.505m5.225 13.077c-1.791 1.6-2.887 2.91-2.435 2.91 1.48 0 7.355-4.792 6.513-5.313-.451-.279-2.286.802-4.078 2.403m12.275.289c-1.1.651-3.532 2.519-5.404 4.152-1.873 1.633-5.077 4.432-7.122 6.219-2.044 1.787-4.285 3.25-4.981 3.25-.695 0-2.26 1.075-3.477 2.389C53.137 120.956 44 135.745 44 137.029c0 1.39 6.178 2.971 11.612 2.971 5.605 0 13.732-2.684 18.581-6.137l2.856-2.034-3.098-5.415C71.505 122.14 71.184 121 72.425 121c.864 0 2.854 2.061 4.422 4.58l2.851 4.58 3.454-4.83c4.1-5.732 6.848-12.258 6.848-16.261 0-5.783-8.18-9.836-13.5-6.69m79.057 11.844c-1.784 2.546-2.019 7.431-.545 11.307 1.578 4.153-2.633 17.47-5.525 17.47-.781 0-4.204 1.8-7.608 4-6.589 4.258-13.457 5.418-15.748 2.658-1.343-1.619-.496-2.658 2.168-2.658 2.22 0 7.964-3.3 11.691-6.717 1.369-1.256 2.829-2.283 3.244-2.283.414 0 2.106-1.868 3.76-4.15 3.716-5.13 4.089-11.204.933-15.215-1.999-2.542-4.927-3.578-4.927-1.743 0 .49-1.012 1.158-2.25 1.484-3.846 1.014-14.851 12.649-17.406 18.403-2.77 6.237-2.907 9.213-.719 15.634 1.829 5.368 5.923 8.591 10.875 8.561 4.089-.025 11.5-3.521 11.5-5.425 0-.852.488-1.549 1.083-1.549.596 0 .886-.562.645-1.25-.241-.687.779-2.375 2.268-3.75 1.489-1.375 3.009-3.743 3.378-5.263.767-3.159 6.874-9.494 7.459-7.738.238.715 1.245.337 2.669-1.001 2.672-2.51 4.613-.918 2.212 1.815-5.881 6.698-7.5 17.491-3.259 21.732 4.279 4.28 6.628 3.348 14.082-5.589 3.69-4.424 6.441-8.311 6.115-8.638-.327-.326-3.586 2.413-7.243 6.088-9.98 10.029-11.274 8.115-4.172-6.175 2.823-5.679 5.793-9.86 9.481-13.349 5.353-5.062 5.368-5.093 4.197-8.731-1.901-5.904-2.409-6.176-7.704-4.128-2.591 1.002-7.307 2.824-10.48 4.048-6.301 2.431-7.491 2.217-5.751-1.034.856-1.599.857-3.002.004-5.586-1.328-4.024-2.284-4.289-4.427-1.228m60.424 1.059c-.836.67-2.294 3.72-3.241 6.778-.948 3.058-3.081 7.081-4.741 8.941-2.008 2.249-2.684 3.714-2.02 4.378 1.311 1.311-3.971 10.85-8.788 15.871-3.984 4.153-5.746 4.795-4.808 1.75l1.21-3.909c.414-1.334.038-2.039-1.25-2.342-1.531-.361-1.377-.626.907-1.567 1.661-.684 2.75-1.898 2.75-3.065 0-1.064 2.025-4.017 4.5-6.564 4.752-4.889 5.338-5.812 3.16-4.976-.737.283-1.909-.172-2.606-1.011-1.05-1.266-.822-2.053 1.34-4.623 1.433-1.703 2.606-3.512 2.606-4.02 0-4.48-11.234 7.229-15.424 16.077-6.354 13.415-5.78 20.457 1.873 22.983 3.078 1.016 4.015.884 7.453-1.048l3.933-2.21 2.717 2.137c1.495 1.176 3.922 2.138 5.393 2.138 3.372 0 8.205-4.612 11.1-10.593 2.347-4.848 2.138-9.218-.702-14.711-1.323-2.559-1.314-3.237.085-6.186 2.008-4.231 2.015-10.432.015-13.287-1.741-2.487-3.218-2.741-5.462-.941M.397 130c0 7.975.156 11.238.346 7.25.189-3.988.189-10.513 0-14.5-.19-3.987-.346-.725-.346 7.25m46.103-9c-.34.55-.141 1 .441 1S48 121.55 48 121s-.198-1-.441-1-.719.45-1.059 1m95 6.159c-5.351 2.938-14.675 13.999-13.116 15.558 1.19 1.19 15.616-13.554 15.616-15.96 0-.946-.064-.936-2.5.402m73.871 12.591c-2.122 6.556-3.858 10.101-6.107 12.47-2.172 2.29-2.331 2.817-1.001 3.327.869.334 2.418.159 3.441-.389 2.657-1.421 6.296-9.235 6.296-13.518 0-3.774-1.638-4.952-2.629-1.89m-2.807.957c-.542 1.425-.428 1.54.56.56.684-.679.991-1.486.683-1.793-.308-.308-.867.247-1.243 1.233M69.5 143.832c-6.492 3.321-17.27 4.127-23.026 1.722-3.689-1.542-4.014-1.536-5.204.092-.731.999-1.27 4.616-1.27 8.522 0 8.062 1.267 9.376 10.038 10.407 9.358 1.099 17.961-4.467 23.782-15.389 4.858-9.115 4.325-9.776-4.32-5.354" fill="#1976D2" fill-rule="evenodd"/><path fill-opacity=".578" d="M108.5 1.575C61.683 8.761 21.688 42.687 6.615 88c-10.495 31.55-8.26 64.494 6.513 95.988l5.109 10.892-2.16 4.462c-1.188 2.454-5.292 7.399-9.119 10.989-10.016 9.398-9.221 12.149 4.526 15.665 9.476 2.424 17.725 2.547 26.314.392 6.256-1.568 6.496-1.556 9.064.479 45.201 35.806 105.419 38.587 152.579 7.044 16.564-11.078 33.728-30.43 42.612-48.042C248.494 173.101 255 150.826 255 141.542c0-1.948.45-3.542 1-3.542.614 0 .954-4.338.882-11.25-.078-7.342-.384-10.208-.882-8.25-.65 2.554-.781 2.211-.882-2.303-.252-11.326-6.705-33.446-13.712-47.008-12.037-23.295-33.34-44.188-57.235-56.133C162.234 2.089 133.529-2.266 108.5 1.575M119 21.571c-1.375.239-5.786.92-9.802 1.513-38.697 5.713-74.344 38.153-84.111 76.544-6.141 24.143-4.544 48.329 4.606 69.735 5.282 12.357 4.152 27.029-2.823 36.658-1.66 2.291-2.722 4.461-2.361 4.822.361.361 5.457.657 11.324.657 7.745 0 12.1-.5 15.897-1.824l5.23-1.824 5.77 4.392c16.901 12.862 33.684 19.532 54.897 21.816 24.323 2.619 50.598-4.109 70.923-18.16 37.856-26.169 54.638-73.344 41.821-117.555-5.49-18.938-14.326-33.286-29.3-47.578-19.483-18.597-41.997-28.082-69.327-29.209-5.634-.233-11.369-.227-12.744.013M61.852 79.113c-1.049.665-.96.86.398.872 3.823.033 1.277 3.183-2.937 3.632-1.249.133-3.743 1.625-5.542 3.315s-4.059 3.327-5.021 3.638C46.887 91.171 46.322 93 48 93c1.667 0 1.139 1.399-1.75 4.633-3.306 3.701-5.973 7.89-7.396 11.617-.577 1.513-1.681 2.75-2.452 2.75-.771 0-1.402.702-1.402 1.559s-.407 1.307-.905 1c-.514-.318-.673 1.167-.368 3.441.37 2.76.161 4-.675 4-1.684 0-.492 5.303 2.519 11.205 1.321 2.587 2.156 5.342 1.858 6.121-.299.779.157 1.685 1.014 2.014.856.328 1.557 1.088 1.557 1.688 0 .599-.337.886-.75.636-.412-.25-1.33.174-2.039.941-.744.805-.85 1.395-.25 1.395.571 0 1.039.498 1.039 1.107s-.711.834-1.579.501c-1.308-.502-1.473-.048-.962 2.643 2.389 12.564 6.146 18.907 11.734 19.815 2.756.448 3.491.273 3.102-.739-.293-.763.174-1.327 1.098-1.327.884 0 1.607.45 1.607 1s.702 1 1.559 1 1.297-.424.977-.942c-.322-.521.658-.836 2.191-.705 1.604.137 4.881-.984 7.773-2.658 6.552-3.794 8.5-5.6 8.5-7.881 0-1.032.688-2.141 1.53-2.464.963-.369 1.309-1.281.934-2.462-.471-1.485-.217-1.742 1.221-1.235 1.484.525 1.587.396.565-.706-1.702-1.834-1.574-3.009.25-2.309 1.05.403 1.55-.131 1.668-1.781.092-1.296.241-3.482.332-4.857.091-1.375.246-3.175.345-4 .099-.825 1.965-3.525 4.146-6a6768.69 6768.69 0 005.623-6.385c1.563-1.779 1.71-1.787 2.635-.134.682 1.218.489 3.271-.634 6.75-2.127 6.584-2.037 7.599.436 4.945 1.128-1.211 1.777-2.646 1.441-3.189-.746-1.208.527-1.261 2.36-.099.816.517 2.455.307 4.132-.53 3.123-1.558 6.016-.906 6.016 1.356 0 .833-.588 1.274-1.322.993-1.781-.684-3.879 2.692-2.519 4.052.687.687.664 1.232-.072 1.687-.598.37-1.087.195-1.087-.387 0-2.505-1.855-.726-3.364 3.224-2.419 6.335-2.134 11.31.819 14.262 3.401 3.402 4.818 3.113 9.562-1.948 3.96-4.225 8.983-10.577 8.983-11.36 0-.205-2.705 2.357-6.012 5.695-6.634 6.696-10.496 8.063-9.378 3.318 1.417-6.008 8.961-18.892 13.925-23.783l5.11-5.033-1.406-4.217c-1.464-4.392-2.111-4.82-5.003-3.31-.955.498-5.284 2.328-9.62 4.066-8.624 3.455-11.056 3.087-8.7-1.317 1.069-1.996 1.009-2.899-.362-5.553-.902-1.742-2.07-2.902-2.597-2.577-.526.326-.957-.254-.957-1.289C93 104.401 85.769 94 81.016 94c-1.367 0-2.785-1.825-4.965-6.393-1.678-3.516-3.839-6.718-4.801-7.115-3.776-1.559-8.111-2.195-9.398-1.379m-2.817 9.116c-7.602 4.43-13.229 10.66-18.205 20.158-4.002 7.639-4.253 8.605-4.29 16.519-.024 4.988.385 8.552 1.006 8.765.575.198 2.137-1.83 3.471-4.505 2.037-4.084 2.643-4.649 3.776-3.516 1.589 1.589 3.207 1.766 3.207.35 0-.55-.477-1-1.059-1s-.781-.45-.441-1 1.491-1 2.559-1c1.552 0 1.941-.702 1.941-3.5 0-3.46 1.295-4.671 2.407-2.25.316.688.323.235.015-1.005-.374-1.507-.039-2.455 1.009-2.857.863-.331 1.569-1.004 1.569-1.495 0-1.451-2.189-1.024-4.394.857-1.129.963-.714.11.921-1.895 2.254-2.763 3.517-3.523 5.223-3.141 1.283.286 2.25.026 2.25-.606 0-.609-.477-1.108-1.059-1.108s-.767-.472-.411-1.049c.446-.721 1.073-.695 2.01.082 1.052.873 2.397.419 5.911-1.999 5.52-3.798 6.472-7.055 1.299-4.445-4.866 2.455-1.946-.123 3.252-2.871 5.27-2.786 6.039-4.981 2.914-8.307-3.206-3.413-8.081-3.145-14.881.818m17.215 13.355c-1.787.782-3.25 1.859-3.25 2.393 0 .534-3.135 3.173-6.967 5.863-3.832 2.691-6.682 5.178-6.333 5.527.348.348-.342.633-1.533.633-1.192 0-2.167-.45-2.167-1s-.505-1-1.122-1c-.741 0-.666.55.217 1.615 1.141 1.375 1.048 1.858-.627 3.257-1.083.904-3.057 3.665-4.389 6.136-4.087 7.583-6.818 11.223-7.542 10.052-.743-1.202-2.537-.495-2.537.999 0 .518.862.941 1.917.941 1.054 0 2.104.563 2.332 1.25.283.85 3.428 1.352 9.834 1.57 8.994.305 9.709.17 15.917-3 3.821-1.952 6.639-4.07 6.837-5.14.185-1.001-.828-3.578-2.25-5.728-1.423-2.15-2.587-4.214-2.587-4.586 0-1.462 3.887 2.947 5.03 5.706 1.62 3.912 2.884 3.648 6.569-1.369 4.369-5.947 6.242-9.858 7.004-14.624.732-4.574-.77-7.08-5.801-9.681-3.253-1.683-4.332-1.659-8.552.186m79.878 12.761c-2.085 2.513-2.392 7.243-.684 10.546.901 1.742 1.343 3.645.983 4.227-.36.583-1.229 3.237-1.931 5.897-1.08 4.093-1.062 4.756.114 4.304.764-.293 1.39-1.16 1.39-1.926s.498-1.393 1.107-1.393.848-.675.531-1.5c-.316-.825-.125-1.5.425-1.5s1.266.694 1.592 1.543c.509 1.326.821 1.348 2.219.152 2.565-2.194 5.26-2.829 6.753-1.59 1.718 1.426 1.79 3.078.117 2.694-3.095-.71-9.744 10.181-9.744 15.961 0 4.909 6.467 10.673 9.5 8.467 1.036-.753 8.943-10.215 11.471-13.727.792-1.1-1.318.677-4.689 3.95-6.799 6.6-10.31 8.578-10.238 5.768.143-5.606 8.954-21.176 15.149-26.774 3.559-3.215 3.93-3.975 3.376-6.927-1.187-6.327-2.812-6.285-18.373.472-6.104 2.651-8.557 1.792-5.863-2.054 1.39-1.984 1.4-2.551.09-5.084-1.692-3.272-1.791-3.317-3.295-1.506m60.217 1.407c-.636.412-2.137 3.661-3.336 7.22-1.199 3.559-3.239 7.531-4.534 8.826-1.295 1.294-2.117 2.971-1.828 3.725.788 2.053-5.24 12.674-9.622 16.952-4.469 4.364-6.462 4.077-4.8-.692.828-2.375.813-3.27-.059-3.561-2.157-.719-1.19-3.998 2.173-7.372 1.837-1.843 3.125-3.984 2.864-4.759-.321-.949.034-1.214 1.085-.811.99.38 2.146-.294 3.16-1.84 1.625-2.482.864-3.352-1.161-1.327-1.175 1.175-3.287.422-3.287-1.172 0-.518.702-.941 1.559-.941s1.26-.483.895-1.074c-.365-.591.217-2.053 1.292-3.25 3.507-3.901 3.739-5.238.428-2.464-1.781 1.492-3.111 3.015-2.956 3.386.155.37-.664 1.023-1.821 1.451-2.555.945-9.877 15.545-10.878 21.692-.625 3.831-.401 4.531 2.318 7.25 3.576 3.576 7.709 3.941 11.436 1.009 3.154-2.481 3.971-2.493 6.146-.09 4.406 4.869 10.469 2.563 15.114-5.749 2.964-5.302 3.132-9.937.546-15.006-1.909-3.743-1.908-3.801.25-9.967 1.998-5.707 2.049-6.419.637-8.938-1.603-2.857-3.659-3.771-5.621-2.498M.378 128c0 6.325.163 8.912.361 5.75.198-3.163.198-8.338 0-11.5-.198-3.163-.361-.575-.361 5.75m46.292-9.583c-.299.78.073 1.654.827 1.943.894.343 1.319-.149 1.224-1.417-.172-2.273-1.272-2.556-2.051-.526m95.143-.122c-4.143 1.858-14.805 12.585-17.446 17.552-4.995 9.394-1.709 22.153 6.334 24.59 2.733.828 10.577-1.179 9.762-2.497-.329-.532 1.263-2.755 3.537-4.94 2.274-2.185 3.851-4.432 3.504-4.994-.347-.562.094-1.746.98-2.633 2.656-2.656.811-2.828-2.707-.253-8.888 6.506-17.005 8.72-19.766 5.393-1.526-1.838-.501-4.915 1.394-4.188 2.916 1.119 18.032-9.537 20.76-14.634 1.358-2.537 1.233-10.079-.212-12.778-1.172-2.192-2.363-2.311-6.14-.618M89 122c0 .55.477 1 1.059 1s.781-.45.441-1-.816-1-1.059-1-.441.45-.441 1m23 4c0 .55.45 1 1 1s1-.45 1-1-.45-1-1-1-1 .45-1 1m27.193 1.975C135.198 130.869 127 140.32 127 142.031c0 3.811 6.961-1.286 14.163-10.371 5.795-7.309 5.024-8.751-1.97-3.685M175 126c0 .55.45 1 1 1s1-.45 1-1-.45-1-1-1-1 .45-1 1m-73.857 1.89c-.834.529-.971 1.098-.355 1.479.552.341 1.26-.053 1.576-.875.662-1.727.6-1.757-1.221-.604m62.44-.024c-.431.697-.513 1.537-.183 1.867.895.895 1.871-.421 1.387-1.871-.338-1.016-.574-1.016-1.204.004M44 130c0 .55-.675 1-1.5 1-1.814 0-1.999 1.665-.25 2.254.688.232 1.798-.293 2.468-1.166C46.217 130.134 46.321 129 45 129c-.55 0-1 .45-1 1m60 0c0 .55.477 1 1.059 1s.781-.45.441-1-.816-1-1.059-1-.441.45-.441 1m63 0c0 .55.45 1 1 1s1-.45 1-1-.45-1-1-1-1 .45-1 1m45.661 8.996c-2.055 3.48-2.095 4.385-.161 3.642 1.942-.745 1.896-.334-.486 4.334-2.318 4.544-4.063 6.018-3.29 2.779.482-2.017.376-2.095-1.021-.751-1.847 1.777-1.194 6.875.989 7.712 2.061.791 7.009-4.362 8.871-9.237 2.043-5.35 1.587-9.521-1.152-10.525-1.655-.607-2.433-.183-3.75 2.046m-139.188 2.348c-1.085.739-4.111 1.962-6.723 2.718S62 145.815 62 146.277c0 .463-.408.589-.906.281-.498-.308-.671-1.46-.383-2.559.292-1.117.03-1.999-.594-1.999-.615 0-1.117.841-1.117 1.868 0 1.601-.819 1.876-5.716 1.92-6.382.058-10.51-1.398-8.169-2.88 1.911-1.21.183-1.138-2.108.088-2.364 1.265-4.516 10.476-3.595 15.385.781 4.165 3.981 6.3 10.85 7.241 7.945 1.089 17.204-4.688 23.116-14.423 5.726-9.431 5.767-13.72.095-9.855m91.527-.285c0 .582.45.781 1 .441s1-.816 1-1.059-.45-.441-1-.441-1 .477-1 1.059" fill="#1976D2" fill-rule="evenodd"/></svg>